<?xml version="1.0" standalone="no"?>
<svg xmlns:xlink="http://www.w3.org/1999/xlink" id="wave" style="transform:rotate(0deg); transition: 0.3s" viewBox="0 0 1440 490" version="1.1" xmlns="http://www.w3.org/2000/svg"><defs><linearGradient id="sw-gradient-0" x1="0" x2="0" y1="1" y2="0"><stop stop-color="rgba(232, 106, 51, 1)" offset="0%"/><stop stop-color="rgba(255, 179, 11, 1)" offset="100%"/></linearGradient></defs><path style="transform:translate(0, 0px); opacity:1" fill="url(#sw-gradient-0)" d="M0,98L34.3,138.8C68.6,180,137,261,206,294C274.3,327,343,310,411,302.2C480,294,549,294,617,245C685.7,196,754,98,823,106.2C891.4,114,960,229,1029,253.2C1097.1,278,1166,212,1234,179.7C1302.9,147,1371,147,1440,147C1508.6,147,1577,147,1646,122.5C1714.3,98,1783,49,1851,98C1920,147,1989,294,2057,359.3C2125.7,425,2194,408,2263,359.3C2331.4,310,2400,229,2469,236.8C2537.1,245,2606,343,2674,318.5C2742.9,294,2811,147,2880,73.5C2948.6,0,3017,0,3086,65.3C3154.3,131,3223,261,3291,277.7C3360,294,3429,196,3497,204.2C3565.7,212,3634,327,3703,326.7C3771.4,327,3840,212,3909,212.3C3977.1,212,4046,327,4114,310.3C4182.9,294,4251,147,4320,114.3C4388.6,82,4457,163,4526,204.2C4594.3,245,4663,245,4731,269.5C4800,294,4869,343,4903,367.5L4937.1,392L4937.1,490L4902.9,490C4868.6,490,4800,490,4731,490C4662.9,490,4594,490,4526,490C4457.1,490,4389,490,4320,490C4251.4,490,4183,490,4114,490C4045.7,490,3977,490,3909,490C3840,490,3771,490,3703,490C3634.3,490,3566,490,3497,490C3428.6,490,3360,490,3291,490C3222.9,490,3154,490,3086,490C3017.1,490,2949,490,2880,490C2811.4,490,2743,490,2674,490C2605.7,490,2537,490,2469,490C2400,490,2331,490,2263,490C2194.3,490,2126,490,2057,490C1988.6,490,1920,490,1851,490C1782.9,490,1714,490,1646,490C1577.1,490,1509,490,1440,490C1371.4,490,1303,490,1234,490C1165.7,490,1097,490,1029,490C960,490,891,490,823,490C754.3,490,686,490,617,490C548.6,490,480,490,411,490C342.9,490,274,490,206,490C137.1,490,69,490,34,490L0,490Z"/></svg>